<?xml version="1.0" encoding="UTF-8" standalone="no"?>
<!-- Created with Inkscape (http://www.inkscape.org/) -->

<svg
   width="88.194801mm"
   height="39.567375mm"
   viewBox="0 0 88.194804 39.567375"
   version="1.1"
   id="svg1"
   inkscape:version="1.3.2 (091e20ef0f, 2023-11-25, custom)"
   sodipodi:docname="boothlogo.svg"
   xmlns:inkscape="http://www.inkscape.org/namespaces/inkscape"
   xmlns:sodipodi="http://sodipodi.sourceforge.net/DTD/sodipodi-0.dtd"
   xmlns="http://www.w3.org/2000/svg"
   xmlns:svg="http://www.w3.org/2000/svg">
  <sodipodi:namedview
     id="namedview1"
     pagecolor="#ffffff"
     bordercolor="#000000"
     borderopacity="0.25"
     inkscape:showpageshadow="2"
     inkscape:pageopacity="0.0"
     inkscape:pagecheckerboard="0"
     inkscape:deskcolor="#d1d1d1"
     inkscape:document-units="mm"
     inkscape:zoom="0.089976151"
     inkscape:cx="2745.1719"
     inkscape:cy="-155.59679"
     inkscape:window-width="1920"
     inkscape:window-height="1048"
     inkscape:window-x="0"
     inkscape:window-y="0"
     inkscape:window-maximized="1"
     inkscape:current-layer="layer1" />
  <defs
     id="defs1" />
  <g
     inkscape:label="Layer 1"
     inkscape:groupmode="layer"
     id="layer1"
     transform="translate(1154.6313,-99.845264)">
    <path
       id="path76230"
       style="color:#000000;fill:#eb1b26;fill-opacity:1;stroke-width:0.999999;stroke-linecap:round;stroke-linejoin:round;-inkscape-stroke:none"
       d="m -1115.1899,99.845264 a 4.0626351,4.0626351 0 0 0 -3.7237,2.438096 h -2.1383 v 0.38368 h -5.9907 c -2.2904,0 -4.2007,1.83906 -4.2007,4.1171 v 12.80001 c 0,2.27804 1.9103,4.11561 4.2007,4.11561 h 12.4648 a 1.1440361,1.1440361 0 0 0 1.144,-1.14396 1.1440361,1.1440361 0 0 0 -1.144,-1.14396 h -12.4648 c -1.0965,0 -1.9125,-0.81267 -1.9125,-1.82769 v -12.80001 c 0,-1.01501 0.816,-1.82886 1.9125,-1.82886 h 5.9907 v 0.3754 h 2.0582 a 4.0626351,4.0626351 0 0 0 3.8038,2.6397 h 1.073 v -8.125116 z m 8.3308,0 v 1.556026 h -2.2031 c -0.3677,0 -0.6639,0.29587 -0.6639,0.66362 v 0.46202 c 0,0.36775 0.2962,0.66362 0.6639,0.66362 h 2.2031 v 1.43454 h -2.2031 c -0.3677,0 -0.6639,0.29617 -0.6639,0.66392 v 0.46171 c 0,0.36776 0.2962,0.66393 0.6639,0.66393 h 2.2031 v 1.55573 h 1.0728 a 4.0626351,4.0626351 0 0 0 3.8037,-2.6397 h 2.0582 v -0.3754 h 5.899 c 1.0965,0 1.9128,0.81385 1.9128,1.82886 v 12.80001 c 0,1.01502 -0.8163,1.82769 -1.9128,1.82769 h -12.2088 a 1.1440361,1.1440361 0 0 0 -1.144,1.14396 1.1440361,1.1440361 0 0 0 1.144,1.14396 h 12.2088 c 2.2905,0 4.2008,-1.83757 4.2008,-4.11561 v -12.80001 c 0,-2.27804 -1.9103,-4.1171 -4.2008,-4.1171 h -5.899 v -0.38368 h -2.138 a 4.0626351,4.0626351 0 0 0 -3.7239,-2.438096 z" />
    <path
       id="path76234"
       style="font-size:28.4928px;line-height:1.25;font-family:Anton;-inkscape-font-specification:Anton;fill:#ffffff;fill-opacity:1;stroke-width:0.264581"
       d="m -1114.6002,109.43862 c -1.054,0 -1.8579,0.31511 -2.4121,0.94532 -0.5433,0.61934 -0.815,1.52667 -0.815,2.72188 0,1.10829 0.4673,2.11894 1.4017,3.03165 l 1.2061,1.20604 c 0.4346,0.42375 0.7333,0.73888 0.8962,0.94533 0.1739,0.19558 0.3153,0.4454 0.4239,0.74965 0.1087,0.29336 0.1629,0.6681 0.1629,1.12446 0,0.34769 -0.049,0.59781 -0.1466,0.74992 -0.098,0.14126 -0.2715,0.21164 -0.5214,0.21164 -0.4455,0 -0.6684,-0.34748 -0.6684,-1.04288 v -1.74402 h -2.7544 v 1.36922 c 0,1.40165 0.2825,2.41741 0.8475,3.04761 0.565,0.63021 1.4831,0.94532 2.7544,0.94532 1.1626,0 1.9939,-0.35314 2.4937,-1.05941 0.5106,-0.71713 0.7661,-1.76554 0.7661,-3.14547 0,-0.61933 -0.076,-1.15194 -0.2281,-1.59742 -0.1522,-0.45636 -0.3531,-0.84755 -0.6031,-1.17351 -0.2499,-0.33684 -0.565,-0.68971 -0.9453,-1.05914 l -1.6299,-1.56489 c -0.5216,-0.48896 -0.7825,-0.96136 -0.7825,-1.41771 0,-0.20645 0.055,-0.36968 0.1632,-0.4892 0.1087,-0.11953 0.2716,-0.17914 0.4889,-0.17914 0.1848,0 0.3258,0.0542 0.4236,0.16287 0.1087,0.10866 0.1632,0.25544 0.1632,0.44015 l 0.016,0.9616 h 2.8523 c 0,-1.4234 -0.2771,-2.46643 -0.8312,-3.12924 -0.5542,-0.67366 -1.4615,-1.01063 -2.7219,-1.01063 z m 7.8883,0 c -1.1843,0 -2.0536,0.35315 -2.6078,1.05941 -0.5541,0.70626 -0.8312,1.75498 -0.8312,3.14577 v 6.4541 c 0,1.11915 0.3043,1.99923 0.9128,2.6403 0.6194,0.64107 1.4398,0.96156 2.4612,0.96156 2.3578,0 3.5368,-1.17331 3.5368,-3.52027 v -2.64057 h -2.8197 v 2.52648 c 0,0.70626 -0.2175,1.05911 -0.6521,1.05911 -0.2173,0 -0.3802,-0.0815 -0.4889,-0.24445 -0.1086,-0.17384 -0.1629,-0.44523 -0.1629,-0.81466 v -7.02462 c 0,-0.33684 0.043,-0.59234 0.1304,-0.76619 0.098,-0.17385 0.2715,-0.26072 0.5214,-0.26072 0.2391,0 0.4077,0.0761 0.5055,0.22821 0.098,0.15212 0.1466,0.42918 0.1466,0.8312 v 2.06979 h 2.7869 v -2.41209 c 0,-1.06483 -0.3151,-1.87988 -0.9453,-2.44489 -0.6302,-0.56501 -1.4615,-0.84747 -2.4937,-0.84747 z m -19.5879,19.48357 v 1.22024 h 1.7502 v -1.22024 z m 15.7707,0 v 1.22024 h 1.7503 v -1.22024 z m -42.1222,0.36005 c -0.6467,2e-5 -1.14,0.1933 -1.48,0.57998 -0.3334,0.38002 -0.4999,0.93675 -0.4999,1.67011 0,0.68005 0.2865,1.30018 0.8599,1.86023 l 0.7402,0.73985 c 0.2667,0.26001 0.4498,0.4536 0.5498,0.58028 0.1067,0.12 0.1934,0.27327 0.2601,0.45995 0.067,0.18002 0.1,0.40992 0.1,0.68994 0,0.21334 -0.03,0.36661 -0.09,0.45994 -0.06,0.0867 -0.1668,0.13006 -0.3202,0.13006 -0.2733,0 -0.41,-0.21326 -0.41,-0.63995 v -1.07008 h -1.6899 v 0.84009 c 0,0.86004 0.1733,1.48326 0.52,1.86995 0.3467,0.38668 0.9099,0.58028 1.6899,0.58028 0.7134,0 1.2233,-0.21667 1.53,-0.65003 0.3134,-0.44002 0.4703,-1.08356 0.4703,-1.93026 0,-0.38002 -0.047,-0.70656 -0.1401,-0.97991 -0.093,-0.28002 -0.2167,-0.52006 -0.3701,-0.72006 -0.1533,-0.20668 -0.3466,-0.42337 -0.5799,-0.65005 l -1.0001,-0.96009 c -0.32,-0.30002 -0.48,-0.58994 -0.48,-0.86995 0,-0.12667 0.033,-0.2267 0.1,-0.30003 0.067,-0.0733 0.1667,-0.10996 0.3,-0.10996 0.1134,0 0.2001,0.0332 0.2602,0.0999 0.067,0.0667 0.1,0.15655 0.1,0.26988 l 0.01,0.59004 h 1.7499 c 0,-0.87339 -0.1699,-1.51324 -0.5099,-1.91994 -0.34,-0.41333 -0.8967,-0.62015 -1.6701,-0.62016 v 0 z m 23.6914,0 c -0.7267,0 -1.2601,0.21666 -1.6001,0.65002 -0.34,0.43336 -0.5102,1.07688 -0.5102,1.93027 v 3.96013 c 0,0.6867 0.1868,1.22684 0.5602,1.6202 0.38,0.39335 0.8835,0.59001 1.5102,0.59001 1.4467,0 2.1699,-0.72019 2.1699,-2.16026 v -1.62017 h -1.7301 v 1.55012 c 0,0.43336 -0.1332,0.65002 -0.3999,0.65002 -0.1334,0 -0.2334,-0.0499 -0.3001,-0.14985 -0.067,-0.10668 -0.1,-0.27349 -0.1,-0.50017 v -4.31011 c 0,-0.20669 0.026,-0.36335 0.08,-0.47002 0.06,-0.10667 0.1668,-0.1599 0.3202,-0.1599 0.1467,0 0.25,0.0465 0.31,0.13981 0.06,0.0933 0.09,0.26352 0.09,0.5102 v 1.26988 h 1.7101 v -1.48004 c 0,-0.65338 -0.1933,-1.15349 -0.58,-1.50018 -0.3867,-0.34669 -0.8967,-0.51996 -1.53,-0.51996 z m 28.3313,0 c -0.7267,0 -1.26,0.21666 -1.6,0.65002 -0.34,0.43336 -0.51,1.07688 -0.51,1.93027 v 3.96013 c 0,0.6867 0.1869,1.22684 0.5602,1.6202 0.38,0.39335 0.8832,0.59001 1.5099,0.59001 1.4467,0 2.1703,-0.72019 2.1703,-2.16026 v -1.62017 h -1.7301 v 1.55012 c 0,0.43336 -0.1336,0.65002 -0.4003,0.65002 -0.1333,0 -0.2331,-0.0499 -0.2997,-0.14985 -0.067,-0.10668 -0.1003,-0.27349 -0.1003,-0.50017 v -4.31011 c 0,-0.20669 0.027,-0.36335 0.08,-0.47002 0.06,-0.10667 0.1665,-0.1599 0.3199,-0.1599 0.1466,0 0.25,0.0465 0.31,0.13981 0.06,0.0933 0.09,0.26352 0.09,0.5102 v 1.26988 h 1.71 v -1.48004 c 0,-0.65338 -0.1932,-1.15349 -0.5799,-1.50018 -0.3867,-0.34669 -0.897,-0.51996 -1.5303,-0.51996 z m -49.2523,0.0302 v 8.64036 h 1.7999 v -5.54041 c 0,-0.14667 0.033,-0.2698 0.1,-0.36981 0.073,-0.10666 0.1702,-0.16021 0.2903,-0.16021 0.14,0 0.2465,0.0502 0.3198,0.15018 0.073,0.10001 0.11,0.2299 0.11,0.3899 v 5.53035 h 1.7502 v -5.64031 c 0,-0.54669 -0.1268,-0.97667 -0.3801,-1.29001 -0.2534,-0.31335 -0.6267,-0.47001 -1.1201,-0.47001 -0.5267,0 -0.8833,0.26655 -1.07,0.7999 v -2.03993 z m 15.4606,0.0498 -1.6999,1.3e-4 v 1.55013 h -0.4901 v 1.32989 h 0.4901 v 4.57026 c 0,0.4267 0.087,0.73692 0.2598,0.93027 0.1734,0.19335 0.49,0.28997 0.9501,0.28997 0.18,0 0.3634,-0.0169 0.5501,-0.0502 0.1933,-0.0267 0.3401,-0.0531 0.4401,-0.0798 v -1.20013 c -0.02,0 -0.06,0.003 -0.12,0.01 -0.06,0.007 -0.1234,0.01 -0.19,0.01 -0.087,0 -0.14,-0.0302 -0.16,-0.0902 -0.02,-0.06 -0.03,-0.15327 -0.03,-0.27994 v -4.11029 h 0.5002 v -1.32989 h -0.5002 z m 28.3317,0 -1.7003,1.3e-4 v 1.55013 h -0.4901 v 1.32989 h 0.4901 v 4.57026 c 0,0.4267 0.087,0.73692 0.2602,0.93027 0.1733,0.19335 0.49,0.28997 0.95,0.28997 0.18,0 0.3634,-0.0169 0.5501,-0.0502 0.1933,-0.0267 0.3398,-0.0531 0.4399,-0.0798 v -1.20013 c -0.02,0 -0.06,0.003 -0.12,0.01 -0.06,0.007 -0.1234,0.01 -0.1901,0.01 -0.087,0 -0.1399,-0.0302 -0.1599,-0.0902 -0.02,-0.06 -0.03,-0.15327 -0.03,-0.27994 v -4.11029 h 0.4998 v -1.32989 h -0.4998 z m -30.7617,1.18015 c -0.32,0 -0.59,0.08 -0.81,0.24002 -0.2134,0.15334 -0.3635,0.3734 -0.4502,0.66008 v -0.81023 h -1.75 v 7.32049 h 1.75 v -5.60043 c 0,-0.0933 0.1468,-0.17335 0.4402,-0.24002 0.3,-0.0733 0.5733,-0.10996 0.82,-0.10996 z m 16.0007,0 c -0.32,0 -0.5899,0.08 -0.8099,0.24002 -0.2134,0.15334 -0.3633,0.3734 -0.4499,0.66008 v -0.81023 h -1.7503 v 7.32049 h 1.7503 v -5.60043 c 0,-0.0933 0.1465,-0.17335 0.4398,-0.24002 0.3,-0.0733 0.5733,-0.10996 0.82,-0.10996 z m -21.8512,0.01 c -0.68,0 -1.2165,0.20652 -1.6099,0.61986 -0.3867,0.4067 -0.5802,0.95666 -0.5802,1.65003 v 2.94033 c 0,1.51342 0.73,2.27019 2.1901,2.27019 1.4601,0 2.1903,-0.75677 2.1903,-2.27019 v -2.94033 c 0,-0.69337 -0.1966,-1.24333 -0.59,-1.65003 -0.3867,-0.41334 -0.9203,-0.61986 -1.6003,-0.61986 z m 24.4614,0 c -0.5734,0 -1.0234,0.10003 -1.3501,0.30004 -0.32,0.2 -0.5499,0.50005 -0.6899,0.90007 -0.1333,0.39335 -0.2001,0.90672 -0.2001,1.54009 v 2.25986 c 0,0.84004 0.1767,1.46355 0.53,1.87025 0.3534,0.40668 0.9301,0.6101 1.7302,0.6101 0.62,0 1.1231,-0.17019 1.5098,-0.5102 0.3934,-0.34669 0.5904,-0.82004 0.5904,-1.42007 v -1.27991 h -1.7801 l 0.01,1.22996 c 0.01,0.18002 -0.027,0.32684 -0.1,0.44016 -0.067,0.11335 -0.1701,0.16998 -0.3101,0.16998 -0.14,0 -0.2464,-0.0566 -0.3198,-0.16998 -0.067,-0.12 -0.1002,-0.26341 -0.1002,-0.43009 v -3.55014 c 0,-0.40668 0.1434,-0.61013 0.4301,-0.61013 0.1534,0 0.2567,0.0533 0.3101,0.15992 0.053,0.1 0.08,0.24681 0.08,0.44015 v 1.03016 h 1.7801 v -1.1203 c 0,-0.5867 -0.1966,-1.04343 -0.59,-1.37011 -0.3934,-0.32668 -0.9036,-0.48981 -1.5303,-0.48981 z m 22.4114,0 c -0.6801,0 -1.2168,0.20652 -1.6102,0.61986 -0.3867,0.4067 -0.58,0.95666 -0.58,1.65003 v 2.94033 c 0,1.51342 0.7301,2.27019 2.1902,2.27019 1.46,0 2.19,-0.75677 2.19,-2.27019 v -2.94033 c 0,-0.69337 -0.1967,-1.24333 -0.59,-1.65003 -0.3867,-0.41334 -0.92,-0.61986 -1.6,-0.61986 z m 5.7801,0 c -0.3534,0 -0.6267,0.0766 -0.82,0.22996 -0.1934,0.15334 -0.33,0.38664 -0.41,0.7 v -0.85015 h -1.7101 v 7.32049 h 1.7101 v -5.1703 c 0,-0.24668 0.037,-0.45659 0.1099,-0.62992 0.073,-0.18002 0.2002,-0.27018 0.3802,-0.27018 0.14,0 0.2299,0.0634 0.2699,0.19007 0.047,0.12668 0.07,0.29346 0.07,0.50013 v 5.3802 h 1.75 v -5.26017 c 0,-0.22668 0.037,-0.42024 0.1103,-0.58024 0.073,-0.16668 0.193,-0.24979 0.3597,-0.24979 0.24,0 0.36,0.23664 0.36,0.71 v 5.3802 h 1.7603 l 0.02,-5.35034 c 0,-0.6667 -0.1132,-1.17327 -0.3399,-1.51997 -0.22,-0.35334 -0.6167,-0.52999 -1.1901,-0.52999 -0.32,0 -0.5699,0.06 -0.7499,0.18001 -0.18,0.11334 -0.3435,0.29647 -0.4901,0.54982 -0.087,-0.22669 -0.2366,-0.40333 -0.4499,-0.52999 -0.2067,-0.13335 -0.4535,-0.19984 -0.7402,-0.19984 z m 7.4703,0 c -0.4467,0 -0.7966,0.15663 -1.0499,0.46998 v -0.39017 h -1.7801 v 8.78044 h 1.7801 v -1.74992 c 0.2267,0.24668 0.5599,0.37008 1,0.37008 0.46,0 0.8035,-0.11015 1.0301,-0.33016 0.2267,-0.22669 0.3732,-0.51999 0.4399,-0.88001 0.067,-0.36669 0.1002,-0.83664 0.1002,-1.41 v -2.71004 c 0,-0.67337 -0.1136,-1.20026 -0.3402,-1.58029 -0.22,-0.38001 -0.6134,-0.56991 -1.1801,-0.56991 z m 4.2803,0 c -0.7601,0 -1.31,0.15327 -1.65,0.45995 -0.3334,0.30668 -0.5002,0.82001 -0.5002,1.54006 v 0.24002 h 1.7003 v -0.44012 c 0,-0.14667 0.033,-0.26331 0.1,-0.34998 0.073,-0.0867 0.1567,-0.1301 0.2501,-0.1301 0.1067,0 0.1965,0.0536 0.2699,0.16022 0.08,0.10001 0.12,0.2465 0.12,0.43985 v 0.73013 0.0201 l -0.4801,0.15991 c -0.5467,0.17335 -0.9532,0.33341 -1.2199,0.48007 -0.2667,0.14002 -0.4766,0.36343 -0.6299,0.67012 -0.1467,0.30667 -0.2202,0.74648 -0.2202,1.31987 0,0.70002 0.1033,1.24012 0.31,1.62013 0.2134,0.37336 0.6033,0.56018 1.17,0.56018 0.26,0 0.4835,-0.0834 0.6702,-0.25008 0.1933,-0.16667 0.3333,-0.39996 0.42,-0.69997 v 0.86994 h 1.7402 v -5.58029 c 0,-0.58002 -0.1902,-1.02661 -0.5702,-1.33996 -0.3801,-0.32002 -0.8734,-0.48004 -1.4801,-0.48004 z m 5.5703,0 c -0.3001,0 -0.5401,0.0933 -0.7201,0.27994 -0.18,0.18668 -0.3065,0.43011 -0.3799,0.73013 v -0.93026 h -1.7502 v 7.32049 h 1.7502 v -5.15021 c 0,-0.27334 0.027,-0.49002 0.08,-0.65001 0.06,-0.16668 0.1797,-0.25009 0.3597,-0.25009 0.1334,0 0.2303,0.0566 0.2903,0.16998 0.067,0.11335 0.1,0.24998 0.1,0.41 v 5.47033 h 1.7201 v -5.65037 c 0,-0.56003 -0.12,-0.98997 -0.36,-1.28998 -0.2334,-0.30668 -0.5968,-0.45995 -1.0902,-0.45995 z m -53.5728,0.0798 v 7.32049 h 1.7502 v -7.32049 z m 10.7707,0 v 5.45054 c 0,0.64673 0.1,1.13328 0.3,1.45995 0.2067,0.32668 0.5831,0.49011 1.1298,0.49011 0.3133,0 0.55,-0.0668 0.71,-0.20014 0.16,-0.13333 0.2998,-0.35336 0.4197,-0.66005 v 0.78008 h 1.7503 v -7.32049 h -1.7402 l -0.01,5.10026 v 0.06 c 0,0.28001 -0.023,0.49664 -0.07,0.64999 -0.047,0.14667 -0.1602,0.22023 -0.3402,0.22023 -0.1334,0 -0.2334,-0.04 -0.3,-0.12 -0.06,-0.0867 -0.09,-0.23007 -0.09,-0.43009 v -0.38014 -5.10029 z m 5,0 v 7.32049 h 1.7503 v -7.32049 z m 39.6723,0 1.1401,7.17064 c 0.01,0.0267 0.01,0.0632 0.01,0.10993 0,0.10002 -0.06,0.14989 -0.18,0.14989 h -0.8398 v 1.10996 h 1.9699 c 0.3067,0 0.5301,-0.0699 0.6701,-0.20986 0.1467,-0.13334 0.2433,-0.34325 0.29,-0.62992 l 1.36,-7.70064 h -1.6798 l -0.3902,3.57022 -0.1901,1.82031 -0.1599,-1.82031 -0.3299,-3.57022 z m -71.844,1.27018 c 0.2734,0 0.4103,0.2133 0.4103,0.63999 v 3.58026 c 0,0.17334 -0.033,0.30999 -0.1002,0.40999 -0.067,0.10002 -0.1701,0.14989 -0.3101,0.14989 -0.14,0 -0.2431,-0.0499 -0.3098,-0.14989 -0.067,-0.1 -0.1002,-0.23665 -0.1002,-0.40999 v -3.58026 c 0,-0.42669 0.1366,-0.63999 0.41,-0.63999 z m 46.8728,0 c 0.2733,0 0.4099,0.2133 0.4099,0.63999 v 3.58026 c 0,0.17334 -0.033,0.30999 -0.1002,0.40999 -0.067,0.10002 -0.1697,0.14989 -0.3097,0.14989 -0.1401,0 -0.2435,-0.0499 -0.3102,-0.14989 -0.067,-0.1 -0.1,-0.23665 -0.1,-0.40999 v -3.58026 c 0,-0.42669 0.1367,-0.63999 0.4101,-0.63999 z m 12.6104,0.0201 h 10e-5 c 0.1666,0 0.2734,0.0665 0.3201,0.19983 0.047,0.13334 0.07,0.32689 0.07,0.58025 v 3.10997 c 0,0.28001 -0.023,0.49332 -0.07,0.63999 -0.047,0.14667 -0.1501,0.22023 -0.3101,0.22023 -0.1667,0 -0.2799,-0.0668 -0.3399,-0.20014 -0.053,-0.14001 -0.08,-0.33329 -0.08,-0.57997 v -3.21021 c 0,-0.5067 0.1367,-0.75995 0.41,-0.75995 z m 5.2002,2.14013 v 2.03992 c 0,0.16001 -0.03,0.29667 -0.09,0.41001 -0.053,0.10666 -0.1466,0.16021 -0.28,0.16021 -0.26,0 -0.3902,-0.21667 -0.3902,-0.65002 v -0.94033 c 0,-0.27334 0.06,-0.48662 0.18,-0.63995 0.1267,-0.15335 0.32,-0.27985 0.58,-0.37984 z" />
  </g>
</svg>
